<svg width="99" height="14" viewBox="0 0 99 14" fill="none" xmlns="http://www.w3.org/2000/svg">
<g clip-path="url(#clip0_5_3)">
<path d="M7.40521 12.2056C10.3069 12.2056 12.6592 9.84436 12.6592 6.93159C12.6592 4.01882 10.3069 1.65755 7.40521 1.65755C4.50352 1.65755 2.15125 4.01882 2.15125 6.93159C2.15125 9.84436 4.50352 12.2056 7.40521 12.2056Z" fill="white"/>
<path d="M13.9801 8.6934C13.0661 12.4433 9.35305 14.7256 5.6866 13.7904C2.02164 12.8555 -0.209455 9.05716 0.704966 5.30738C1.61853 1.55696 5.33161 -0.725456 8.99699 0.209472C12.663 1.14439 14.8939 4.94317 13.9801 8.6934ZM10.3597 6.0028C10.4959 5.07136 9.80257 4.57064 8.85458 4.23662L9.16209 2.97487L8.41126 2.78348L8.11187 4.01195C7.91448 3.96165 7.71176 3.91419 7.51032 3.86716L7.81185 2.63057L7.06143 2.43916L6.75371 3.70047C6.59033 3.6624 6.42993 3.62478 6.27426 3.58519L6.27512 3.58125L5.23966 3.31679L5.03992 4.1371C5.03992 4.1371 5.597 4.26768 5.58523 4.27577C5.88933 4.35343 5.94428 4.55927 5.93509 4.72246L5.58481 6.15985C5.60576 6.16531 5.63292 6.17319 5.66285 6.18543C5.63784 6.17909 5.61111 6.1721 5.58352 6.16531L5.09253 8.17888C5.05531 8.27339 4.961 8.41515 4.74844 8.36133C4.75593 8.37248 4.20269 8.22198 4.20269 8.22198L3.82996 9.10113L4.80704 9.35029C4.9888 9.39687 5.16694 9.44566 5.34231 9.4916L5.03157 10.7678L5.78154 10.9591L6.08927 9.69656C6.29414 9.75344 6.49303 9.80593 6.68764 9.85537L6.38096 11.1121L7.13179 11.3035L7.44252 10.0297C8.72283 10.2776 9.68558 10.1776 10.0908 8.99307C10.4174 8.03934 10.0746 7.48917 9.40097 7.13043C9.89153 7.01472 10.2608 6.68462 10.3597 6.0028ZM8.64414 8.46348C8.41211 9.41723 6.84224 8.90165 6.33328 8.77235L6.74558 7.08166C7.25453 7.21159 8.88664 7.46884 8.64414 8.46348ZM8.87638 5.98901C8.66467 6.85656 7.35804 6.41579 6.9342 6.30771L7.30801 4.77431C7.73186 4.88235 9.09686 5.08405 8.87638 5.98901Z" fill="#FF9500"/>
<path d="M20.5519 4.23647C21.1067 4.23647 21.5863 4.33819 21.9892 4.5379C22.394 4.73958 22.728 5.01127 22.9959 5.35294C23.2603 5.69639 23.4572 6.0978 23.5841 6.55781C23.7104 7.01916 23.7736 7.51505 23.7736 8.04596C23.7736 8.86146 23.6275 9.6319 23.3325 10.3581C23.0376 11.0855 22.6375 11.7163 22.1286 12.2545C21.62 12.7919 21.0195 13.2156 20.3271 13.5287C19.6357 13.8419 18.8841 13.9985 18.077 13.9985C17.9726 13.9985 17.7891 13.9954 17.53 13.99C17.2708 13.9845 16.9729 13.9572 16.6393 13.911C16.3036 13.8631 15.9486 13.7922 15.5737 13.6973C15.199 13.6041 14.8432 13.4735 14.5081 13.3077L17.5045 0.428732L20.1884 0.00326538L19.1153 4.57356C19.3452 4.4677 19.5766 4.38566 19.8075 4.32594C20.0387 4.2671 20.2866 4.23647 20.5519 4.23647ZM18.3007 11.8207C18.705 11.8207 19.0859 11.719 19.4435 11.5192C19.8024 11.3193 20.1119 11.0494 20.3714 10.7132C20.6309 10.3754 20.8362 9.99502 20.9858 9.56999C21.1354 9.14495 21.2113 8.70155 21.2113 8.2402C21.2113 7.67343 21.1186 7.23135 20.9341 6.91176C20.7495 6.59347 20.408 6.43335 19.9121 6.43335C19.7497 6.43335 19.5401 6.46508 19.2806 6.52171C19.0202 6.58188 18.7869 6.70679 18.5781 6.89468L17.4357 11.7482C17.5045 11.7607 17.5654 11.7725 17.6174 11.7837C17.6683 11.7957 17.7245 11.8042 17.7807 11.8102C17.8399 11.817 17.9076 11.8205 17.9896 11.8205C18.0715 11.8205 18.1738 11.8207 18.3007 11.8207Z" fill="white"/>
<path d="M26.5574 13.7516H23.994L26.1588 4.43366H28.7399L26.5574 13.7516ZM27.8049 3.29837C27.447 3.29837 27.1226 3.18942 26.8347 2.97112C26.5445 2.75412 26.4009 2.42008 26.4009 1.9699C26.4009 1.72229 26.45 1.48997 26.5476 1.27079C26.6467 1.05204 26.7759 0.863698 26.9381 0.703577C27.0999 0.544765 27.2874 0.417887 27.5005 0.322296C27.7147 0.228235 27.9428 0.181206 28.1857 0.181206C28.5432 0.181206 28.8659 0.290143 29.1548 0.508452C29.4426 0.727857 29.5875 1.06188 29.5875 1.50966C29.5875 1.75816 29.5386 1.99134 29.44 2.21009C29.3423 2.42884 29.2129 2.61718 29.0509 2.7773C28.8903 2.93634 28.701 3.06277 28.4885 3.15748C28.2741 3.25308 28.0468 3.29837 27.8049 3.29837Z" fill="white"/>
<path d="M30.9853 2.11183L33.6703 1.68636L33.0111 4.43295H35.8865L35.3672 6.59375H32.509L31.7478 9.85307C31.6776 10.1248 31.6379 10.3785 31.6267 10.6143C31.6141 10.8513 31.6433 11.0547 31.7126 11.226C31.7816 11.3977 31.9054 11.53 32.085 11.6236C32.2637 11.7187 32.5197 11.7667 32.8554 11.7667C33.132 11.7667 33.4015 11.7397 33.662 11.6864C33.921 11.6339 34.1834 11.5608 34.4489 11.4653L34.6401 13.4856C34.2936 13.6155 33.9185 13.7273 33.5143 13.8214C33.1095 13.9167 32.6304 13.9627 32.0764 13.9627C31.28 13.9627 30.6626 13.8418 30.2229 13.6009C29.7836 13.3583 29.4731 13.0269 29.2872 12.6073C29.104 12.1893 29.022 11.7074 29.0449 11.1645C29.0686 10.6203 29.1488 10.0482 29.2872 9.44578L30.9853 2.11183Z" fill="white"/>
<path d="M35.7738 10.031C35.7738 9.22841 35.9007 8.47153 36.1547 7.76301C36.408 7.05383 36.7729 6.43369 37.2466 5.90147C37.7185 5.37188 38.2936 4.95232 38.9705 4.64431C39.6442 4.33807 40.3985 4.18365 41.2296 4.18365C41.75 4.18365 42.2147 4.23396 42.6235 4.33479C43.0341 4.43652 43.4055 4.56799 43.7416 4.73292L42.8575 6.78915C42.6266 6.69335 42.3868 6.60889 42.1388 6.53233C41.8909 6.45425 41.588 6.41663 41.2298 6.41663C40.3742 6.41663 39.6978 6.71828 39.1943 7.31961C38.6928 7.92138 38.4404 8.73141 38.4404 9.74749C38.4404 10.3497 38.5673 10.8366 38.8223 11.2091C39.0759 11.5817 39.5446 11.767 40.2247 11.767C40.5604 11.767 40.8845 11.7312 41.1948 11.661C41.5075 11.5902 41.7836 11.501 42.0266 11.3956L42.2181 13.5034C41.8938 13.632 41.5363 13.7482 41.144 13.8499C40.751 13.9481 40.2831 13.999 39.7406 13.999C39.0244 13.999 38.4181 13.8919 37.9223 13.6808C37.426 13.4664 37.0161 13.1818 36.6933 12.8214C36.3686 12.46 36.1356 12.038 35.9914 11.5537C35.8472 11.0699 35.7738 10.5615 35.7738 10.031Z" fill="white"/>
<path d="M47.1608 13.999C46.549 13.999 46.0176 13.9037 45.5667 13.7149C45.1173 13.5261 44.7449 13.2612 44.4504 12.9178C44.1555 12.5761 43.9349 12.1712 43.7836 11.7046C43.6325 11.2383 43.5597 10.7218 43.5597 10.1559C43.5597 9.44606 43.6713 8.73644 43.8963 8.02879C44.1205 7.31961 44.4532 6.6824 44.8932 6.11606C45.3299 5.54885 45.8685 5.0851 46.5027 4.72352C47.1365 4.36432 47.8652 4.18365 48.6839 4.18365C49.2845 4.18365 49.8132 4.27923 50.2701 4.46802C50.7249 4.65636 51.0997 4.92345 51.3958 5.26513C51.689 5.60856 51.9115 6.01172 52.0611 6.47898C52.212 6.94447 52.2864 7.46223 52.2864 8.02858C52.2864 8.73621 52.1764 9.44583 51.9582 10.1557C51.7399 10.862 51.416 11.5008 50.9883 12.0684C50.5614 12.6348 50.0276 13.0983 49.3865 13.4583C48.7462 13.8184 48.0038 13.999 47.1608 13.999ZM48.442 6.41685C48.0619 6.41685 47.7261 6.52972 47.4384 6.75262C47.1497 6.97814 46.9072 7.26163 46.7117 7.60355C46.5142 7.94698 46.3676 8.32148 46.2686 8.72858C46.1705 9.13654 46.1224 9.52218 46.1224 9.88858C46.1224 10.4799 46.2157 10.9404 46.3988 11.2717C46.5847 11.6014 46.9185 11.7672 47.4038 11.7672C47.785 11.7672 48.1193 11.6552 48.4086 11.4298C48.6957 11.2062 48.9383 10.9223 49.1353 10.5798C49.3315 10.2381 49.4794 9.86256 49.5783 9.45482C49.6753 9.04815 49.7248 8.66032 49.7248 8.29457C49.7248 7.70483 49.6319 7.24327 49.4469 6.9123C49.262 6.58264 48.9267 6.41685 48.442 6.41685Z" fill="white"/>
<path d="M55.08 13.7516H52.5143L54.6791 4.43366H57.2614L55.08 13.7516ZM56.3254 3.29837C55.9678 3.29837 55.6437 3.18942 55.3562 2.97112C55.0675 2.75412 54.9226 2.42008 54.9226 1.9699C54.9226 1.72229 54.9725 1.48997 55.07 1.27079C55.1677 1.05204 55.298 0.863698 55.4601 0.703577C55.6211 0.544765 55.8104 0.417887 56.0229 0.322296C56.236 0.228235 56.464 0.181206 56.7059 0.181206C57.0645 0.181206 57.3882 0.290143 57.6764 0.508452C57.965 0.727857 58.1106 1.06188 58.1106 1.50966C58.1106 1.75816 58.0589 1.99134 57.9619 2.21009C57.865 2.42884 57.7348 2.61718 57.5734 2.7773C57.4109 2.93634 57.2239 3.06277 57.011 3.15748C56.7962 3.25308 56.5688 3.29837 56.3254 3.29837Z" fill="white"/>
<path d="M59.1096 4.8577C59.3042 4.7995 59.5215 4.72951 59.7578 4.65339C59.9949 4.57727 60.2598 4.5064 60.5558 4.44252C60.8485 4.37668 61.179 4.32331 61.5423 4.28195C61.9057 4.23973 62.3196 4.21918 62.7796 4.21918C64.1317 4.21918 65.0635 4.62189 65.578 5.42492C66.0922 6.22794 66.1811 7.32692 65.8476 8.71991L64.6683 13.7511H62.088L63.2308 8.82578C63.3007 8.51823 63.3554 8.22095 63.3958 7.93044C63.4366 7.64257 63.4343 7.38883 63.3866 7.16921C63.341 6.9522 63.2337 6.77458 63.067 6.63699C62.898 6.50159 62.6425 6.43356 62.2957 6.43356C61.9614 6.43356 61.6213 6.47031 61.2744 6.54118L59.5942 13.7509H57.0128L59.1096 4.8577Z" fill="white"/>
<path d="M10.3902 5.98511C10.5276 5.05093 9.82817 4.54874 8.87175 4.21372L9.182 2.94826L8.42451 2.75629L8.12245 3.98841C7.92331 3.93794 7.71878 3.89033 7.51555 3.84317L7.81975 2.60293L7.06269 2.41096L6.75223 3.67598C6.58739 3.63781 6.42558 3.60008 6.26851 3.56037L6.26937 3.55642L5.22471 3.29118L5.0232 4.1139C5.0232 4.1139 5.58523 4.24488 5.57336 4.253C5.88016 4.33088 5.93561 4.53733 5.92633 4.701L5.57293 6.14264C5.59407 6.14812 5.62147 6.15602 5.65168 6.16831C5.62644 6.16195 5.59947 6.15493 5.57164 6.14812L5.07628 8.16765C5.03874 8.26243 4.94359 8.40459 4.72913 8.35063C4.73668 8.36182 4.17854 8.21087 4.17854 8.21087L3.80249 9.09262L4.78825 9.34251C4.97164 9.38924 5.15136 9.43816 5.32827 9.48423L5.01478 10.7642L5.77142 10.9562L6.08188 9.68981C6.28857 9.74685 6.48922 9.7995 6.68556 9.84908L6.37617 11.1095L7.13367 11.3015L7.44716 10.0239C8.73885 10.2725 9.71016 10.1723 10.119 8.98423C10.4485 8.02767 10.1026 7.4759 9.423 7.11609C9.91792 7.00003 10.2905 6.66896 10.3902 5.98511ZM8.65945 8.45308C8.42536 9.40964 6.84155 8.89253 6.32806 8.76286L6.74402 7.06717C7.25751 7.19748 8.90411 7.4555 8.65945 8.45308ZM8.89375 5.9713C8.68016 6.84141 7.36193 6.39933 6.93431 6.29095L7.31145 4.753C7.73907 4.86138 9.11619 5.06366 8.89375 5.9713Z" fill="white"/>
<path d="M74.7683 9.5356C74.6114 10.1764 74.5665 10.8228 74.6338 11.4749C74.701 12.1157 74.8299 12.6891 75.0204 13.195L72.7848 13.5154C72.7175 13.3805 72.6559 13.2512 72.5999 13.1275C72.5438 13.0039 72.4878 12.8633 72.4318 12.706C72.118 12.9645 71.7706 13.1781 71.3896 13.3468C71.0086 13.5154 70.5828 13.5997 70.1121 13.5997C69.5518 13.5997 69.07 13.5042 68.6666 13.313C68.2743 13.1107 67.9494 12.8465 67.6916 12.5205C67.4451 12.1832 67.2658 11.7953 67.1537 11.3569C67.0417 10.9072 66.9857 10.4294 66.9857 9.92346C66.9857 9.14774 67.1201 8.41698 67.3891 7.73119C67.6692 7.0454 68.0502 6.44955 68.5321 5.94364C69.0252 5.42649 69.6023 5.02177 70.2634 4.72946C70.9246 4.43716 71.6418 4.29101 72.415 4.29101C72.5158 4.29101 72.6895 4.29663 72.9361 4.30787C73.1938 4.31911 73.4852 4.34722 73.8101 4.39219C74.1351 4.42592 74.4769 4.48775 74.8355 4.57769C75.1941 4.66763 75.5359 4.7913 75.8608 4.94869L74.7683 9.5356ZM73.0201 6.43269C72.8744 6.41021 72.74 6.39334 72.6167 6.3821C72.5046 6.37086 72.3646 6.36524 72.1965 6.36524C71.8155 6.36524 71.4569 6.4608 71.1207 6.65192C70.7957 6.84304 70.51 7.09599 70.2634 7.41078C70.0169 7.71433 69.8208 8.06846 69.6751 8.47319C69.5406 8.87792 69.4734 9.29951 69.4734 9.73796C69.4734 10.2776 69.563 10.7048 69.7423 11.0196C69.9216 11.3344 70.2522 11.4918 70.7341 11.4918C70.9918 11.4918 71.2215 11.4412 71.4232 11.34C71.6362 11.2388 71.8603 11.0702 72.0956 10.8341C72.118 10.553 72.1516 10.2607 72.1965 9.95719C72.2525 9.6424 72.3085 9.35572 72.3646 9.09714L73.0201 6.43269Z" fill="#FF9500"/>
<path d="M79.2377 11.5761C79.8092 11.5761 80.2014 11.4974 80.4143 11.34C80.6272 11.1714 80.7337 10.9915 80.7337 10.8004C80.7337 10.6767 80.7113 10.5699 80.6664 10.48C80.6328 10.39 80.5712 10.3057 80.4815 10.227C80.3919 10.1483 80.2686 10.0696 80.1117 9.99092C79.9548 9.90098 79.7531 9.7998 79.5066 9.68738C79.2265 9.56371 78.9631 9.43442 78.7166 9.29951C78.47 9.15336 78.2515 8.98473 78.061 8.7936C77.8817 8.59124 77.7361 8.36639 77.624 8.11906C77.5231 7.86048 77.4727 7.55694 77.4727 7.20842C77.4727 6.29779 77.8033 5.57827 78.4644 5.04988C79.1368 4.52148 80.1117 4.25729 81.3892 4.25729C81.9943 4.25729 82.5322 4.32474 83.0029 4.45965C83.4735 4.59456 83.8545 4.74071 84.1459 4.8981L83.2886 6.76997C83.0533 6.6463 82.7508 6.52826 82.381 6.41583C82.0112 6.30341 81.647 6.2472 81.2884 6.2472C81.1315 6.2472 80.9746 6.25844 80.8177 6.28092C80.672 6.29217 80.532 6.32589 80.3975 6.3821C80.2742 6.43832 80.1734 6.51701 80.0949 6.6182C80.0165 6.71938 79.9773 6.85429 79.9773 7.02292C79.9773 7.24777 80.0613 7.41641 80.2294 7.52883C80.4087 7.64126 80.6552 7.77617 80.969 7.93356C81.406 8.14717 81.7702 8.34391 82.0616 8.52379C82.3529 8.70367 82.5827 8.89479 82.7508 9.09715C82.9301 9.29951 83.0589 9.52998 83.1374 9.78856C83.2158 10.0471 83.255 10.3507 83.255 10.6992C83.255 11.0589 83.1766 11.4131 83.0197 11.7616C82.874 12.1101 82.6387 12.4193 82.3137 12.6891C81.9887 12.9589 81.5741 13.1781 81.0698 13.3468C80.5656 13.5154 79.9605 13.5997 79.2545 13.5997C78.8174 13.5997 78.4196 13.5716 78.061 13.5154C77.7136 13.4592 77.4055 13.3917 77.1365 13.313C76.8676 13.2231 76.6379 13.1332 76.4474 13.0432C76.2681 12.9533 76.128 12.8802 76.0271 12.824L76.8844 10.9015C77.0749 11.014 77.3719 11.1545 77.7753 11.3231C78.1787 11.4918 78.6662 11.5761 79.2377 11.5761Z" fill="#FF9500"/>
<path d="M86.9765 13.3636H84.4888L86.5899 4.49338H89.0944L86.9765 13.3636ZM88.1867 3.4141C87.8394 3.4141 87.5256 3.31292 87.2454 3.11056C86.9653 2.89695 86.8252 2.57654 86.8252 2.14933C86.8252 1.91324 86.87 1.69401 86.9597 1.49165C87.0605 1.27804 87.1894 1.09816 87.3463 0.952008C87.5032 0.794614 87.6825 0.670947 87.8842 0.581008C88.0971 0.491069 88.3212 0.446098 88.5565 0.446098C88.9039 0.446098 89.2177 0.552901 89.4978 0.766507C89.778 0.968871 89.9181 1.28366 89.9181 1.71088C89.9181 1.94697 89.8677 2.17182 89.7668 2.38542C89.6771 2.58779 89.5539 2.76766 89.397 2.92506C89.2401 3.07121 89.0552 3.18926 88.8423 3.2792C88.6406 3.36913 88.4221 3.4141 88.1867 3.4141Z" fill="#FF9500"/>
<path d="M97.3495 9.5356C97.1926 10.1764 97.1478 10.8228 97.215 11.4749C97.2822 12.1157 97.4111 12.6891 97.6016 13.195L95.366 13.5154C95.2988 13.3805 95.2371 13.2512 95.1811 13.1275C95.1251 13.0039 95.069 12.8633 95.013 12.706C94.6992 12.9645 94.3519 13.1781 93.9709 13.3468C93.5898 13.5154 93.164 13.5997 92.6934 13.5997C92.1331 13.5997 91.6512 13.5042 91.2478 13.313C90.8556 13.1107 90.5306 12.8465 90.2729 12.5205C90.0263 12.1832 89.847 11.7953 89.735 11.3569C89.6229 10.9072 89.5669 10.4294 89.5669 9.92346C89.5669 9.14774 89.7013 8.41698 89.9703 7.73119C90.2504 7.0454 90.6315 6.44955 91.1133 5.94364C91.6064 5.42649 92.1835 5.02177 92.8446 4.72946C93.5058 4.43716 94.223 4.29101 94.9962 4.29101C95.0971 4.29101 95.2708 4.29663 95.5173 4.30787C95.775 4.31911 96.0664 4.34722 96.3914 4.39219C96.7163 4.42592 97.0581 4.48775 97.4167 4.57769C97.7753 4.66763 98.1171 4.7913 98.4421 4.94869L97.3495 9.5356ZM95.6013 6.43269C95.4557 6.41021 95.3212 6.39334 95.1979 6.3821C95.0859 6.37086 94.9458 6.36524 94.7777 6.36524C94.3967 6.36524 94.0381 6.4608 93.7019 6.65192C93.3769 6.84304 93.0912 7.09599 92.8446 7.41078C92.5981 7.71433 92.402 8.06846 92.2563 8.47319C92.1219 8.87792 92.0546 9.29951 92.0546 9.73796C92.0546 10.2776 92.1443 10.7048 92.3236 11.0196C92.5029 11.3344 92.8334 11.4918 93.3153 11.4918C93.573 11.4918 93.8028 11.4412 94.0045 11.34C94.2174 11.2388 94.4415 11.0702 94.6768 10.8341C94.6992 10.553 94.7329 10.2607 94.7777 9.95719C94.8337 9.6424 94.8897 9.35572 94.9458 9.09714L95.6013 6.43269Z" fill="#FF9500"/>
</g>
<defs>
<clipPath id="clip0_5_3">
<rect width="98" height="14" fill="white" transform="translate(0.5)"/>
</clipPath>
</defs>
</svg>
