<svg width="197" height="72" viewBox="0 0 197 72" fill="none" xmlns="http://www.w3.org/2000/svg">
<path d="M15.7852 51.7582L14.4945 49.2527C14.1967 48.6923 14.0312 48.0659 14.0643 47.4396C14.0643 46.9121 14.1967 46.3187 14.5607 45.6923C15.1233 44.7692 16.0168 42.989 16.6787 41.6374C17.0096 40.9451 17.9031 38.4725 19.8555 38.4396C21.5764 38.4066 22.9001 40.1209 23.7936 42.5934C26.4079 49.7473 29.5848 46.0549 29.5848 46.0549C29.5848 46.0549 26.7057 53.011 25.018 54.2637C23.0986 55.6813 18.6311 57.3956 15.7852 51.7582Z" fill="#C1FF72"/>
<path d="M24.323 26.011L27.3345 19.9121C27.7316 19.1209 28.261 18.3956 28.956 17.8352C30.5113 16.6154 33.4235 15.1648 36.5342 17.967C37.4277 18.7582 38.1226 19.7802 38.619 20.8681L50.2345 45.2967C50.2345 45.2967 51.7568 48.2637 54.8013 46.0879L51.8891 52.1868C51.3266 53.3736 50.4 54.3956 49.2417 54.989C48.5468 55.3517 47.6864 55.6154 46.6605 55.6484C43.2189 55.7802 41.7959 53.3736 41.0017 51.7253C40.2075 50.0769 28.9229 26.6703 28.9229 26.6703C28.9229 26.6703 27.533 23.3736 24.323 26.011Z" fill="#C1FF72"/>
<path d="M47.19 26.011L50.2014 19.9121C50.5985 19.1209 51.128 18.3956 51.8229 17.8352C53.3783 16.6154 56.2904 15.1648 59.4011 17.967C60.2946 18.7582 60.9896 19.7802 61.486 20.8681L73.1015 45.2967C73.1015 45.2967 74.6237 48.2637 77.6682 46.0879L74.7561 52.1868C74.1935 53.3736 73.2669 54.3956 72.1087 54.989C71.4137 55.3517 70.5533 55.6154 69.5275 55.6484C66.0858 55.7802 64.6629 53.3736 63.8686 51.7253C63.0744 50.0769 51.7899 26.6703 51.7899 26.6703C51.7899 26.6703 50.4331 23.3736 47.19 26.011Z" fill="#C1FF72"/>
<path d="M98.682 53.5714C88.8204 53.5714 82.1688 47.011 82.1688 37.1209C82.1688 27.2308 88.8204 20.6044 98.682 20.6044C108.511 20.6044 115.063 27.2308 115.063 37.1209C115.063 47.011 108.477 53.5714 98.682 53.5714ZM109.139 37.1209C109.139 30.2967 104.97 25.7143 98.6489 25.7143C92.2951 25.7143 88.0593 30.2967 88.0593 37.1209C88.0593 43.9121 92.2951 48.4615 98.6489 48.4615C104.97 48.4615 109.139 43.8791 109.139 37.1209Z" fill="white"/>
<path d="M119.332 21.0989C120.556 21.0989 121.384 21.4945 121.946 22.6484L133.032 43.8462L143.92 22.7473C144.482 21.6923 145.442 21.0989 146.501 21.0989C148.321 21.0989 150.373 22.7143 149.181 25.0549L135.679 51.4945C135.117 52.4506 134.124 53.044 133.065 53.044C131.94 53.044 130.914 52.5494 130.352 51.3956L116.486 24.8242C115.592 22.7143 117.512 21.0989 119.332 21.0989Z" fill="white"/>
<path d="M168.243 21.989L182.505 49.8462C183.829 52.0549 181.811 53.5714 179.891 53.5714C178.931 53.5714 177.839 53.0769 177.31 52.1209L173.769 45.1319H157.554L154.013 52.1209C153.516 53.1758 152.457 53.5714 151.498 53.5714C149.744 53.5714 147.758 51.956 148.685 50.011L163.047 21.989C163.543 20.8681 164.371 20.5714 165.661 20.5714C166.753 20.6044 167.746 21 168.243 21.989ZM160.036 40.2527H171.32L165.661 29.044L160.036 40.2527Z" fill="white"/>
</svg>
